<svg width="1260" height="591" viewBox="0 0 1260 591" fill="none" xmlns="http://www.w3.org/2000/svg">
<rect width="1260" height="591" rx="24" fill="url(#paint0_linear_571_16)"/>
<g opacity="0.25" filter="url(#filter0_f_571_16)">
<path d="M50 211.844L54.5366 207.219C59.8738 212.556 66.1302 215.254 73.3058 215.313C73.4244 215.313 73.543 215.313 73.6616 215.313C77.9314 215.313 81.4599 214.275 84.2471 212.2C87.0343 210.125 88.4279 207.279 88.4279 203.662C88.4279 201.29 87.7459 199.244 86.382 197.525C85.018 195.805 83.2389 194.471 81.0448 193.523C78.8506 192.515 76.4192 191.596 73.7506 190.765C71.1413 189.876 68.5023 188.957 65.8337 188.008C63.1651 187.06 60.7337 185.963 58.5395 184.718C56.3453 183.413 54.5663 181.634 53.2023 179.381C51.8384 177.128 51.1564 174.489 51.1564 171.465C51.1564 166.781 53.0244 162.898 56.7605 159.814C60.5558 156.731 65.6855 155.189 72.1494 155.189C76.0041 155.189 79.8884 156.049 83.8023 157.769C87.7163 159.429 90.9779 162.038 93.5872 165.595L88.5169 169.598C86.7971 167.226 84.4843 165.358 81.5785 163.994C78.6727 162.571 75.6483 161.83 72.5052 161.771C68.1762 161.771 64.6773 162.69 62.0087 164.528C59.3994 166.307 58.0948 168.619 58.0948 171.465C58.0948 173.6 58.7767 175.438 60.1407 176.98C61.5046 178.462 63.2837 179.678 65.4779 180.626C67.6721 181.516 70.0738 182.375 72.6831 183.206C75.3517 183.976 78.0203 184.866 80.6889 185.874C83.3576 186.882 85.7889 188.068 87.9831 189.431C90.1773 190.795 91.9564 192.663 93.3203 195.035C94.6843 197.406 95.3663 200.193 95.3663 203.395C95.3663 209.087 93.2907 213.593 89.1395 216.914C85.0477 220.234 79.8587 221.894 73.5727 221.894C73.4541 221.894 73.3355 221.894 73.2169 221.894C64.0843 221.894 56.3453 218.544 50 211.844Z" fill="white"/>
<path d="M104.92 156.168H144.593V162.838H111.947V184.451H142.814V191.032H111.947V214.246H145.483V221.094H104.92V156.168Z" fill="white"/>
<path d="M154.351 156.168H161.379V196.28C161.379 202.209 163.01 206.775 166.271 209.977C169.592 213.178 173.832 214.779 178.992 214.779C184.21 214.779 188.51 213.178 191.89 209.977C195.329 206.775 197.049 202.209 197.049 196.28V156.168H204.165V196.369C204.165 204.136 201.793 210.332 197.049 214.957C192.305 219.582 186.375 221.894 179.258 221.894C172.083 221.894 166.123 219.582 161.379 214.957C156.694 210.332 154.351 204.136 154.351 196.369V156.168Z" fill="white"/>
<path d="M243.415 164.795C249.997 158.213 257.973 154.923 267.343 154.923C276.654 154.923 284.6 158.213 291.183 164.795C297.765 171.377 301.057 179.322 301.057 188.631C301.057 197.999 297.765 206.004 291.183 212.645C284.6 219.226 276.654 222.517 267.343 222.517C257.973 222.517 249.997 219.226 243.415 212.645C236.832 206.004 233.541 197.999 233.541 188.631C233.541 179.322 236.832 171.377 243.415 164.795ZM254.623 201.349C258.122 204.907 262.362 206.686 267.343 206.686C272.265 206.686 276.476 204.937 279.975 201.438C283.473 197.881 285.223 193.612 285.223 188.631C285.223 183.71 283.473 179.5 279.975 176.001C276.476 172.444 272.265 170.665 267.343 170.665C262.421 170.665 258.181 172.444 254.623 176.001C251.065 179.5 249.286 183.71 249.286 188.631C249.286 193.612 251.065 197.851 254.623 201.349Z" fill="white"/>
<path d="M350.6 221.094H307.369V156.168H322.758V205.707H350.6V221.094Z" fill="white"/>
<path d="M354.91 156.168H370.299V181.338H391.737V156.168H407.126V221.094H391.737V196.724H370.299V221.094H354.91V156.168Z" fill="white"/>
<path d="M431.667 156.168H448.213L469.828 221.094H452.927L449.547 209.71H430.422L427.042 221.094H410.052L431.667 156.168ZM445.366 195.479L439.94 177.158L434.603 195.479H445.366Z" fill="white"/>
<path d="M497.838 156.168C504.954 156.168 510.647 158.243 514.917 162.394C519.246 166.485 521.41 171.614 521.41 177.78C521.41 181.871 520.372 185.577 518.297 188.898C516.221 192.218 513.375 194.708 509.757 196.369L522.745 221.094H505.221L494.546 199.482H488.142V221.094H472.753V156.168H497.838ZM497.482 184.451C499.973 184.451 501.929 183.828 503.353 182.583C504.835 181.338 505.577 179.737 505.577 177.78C505.577 175.883 504.835 174.312 503.353 173.066C501.929 171.821 499.973 171.199 497.482 171.199H488.142V184.451H497.482Z" fill="white"/>
<path d="M550.601 156.168H590.274V162.838H557.628V184.451H588.495V191.032H557.628V214.246H591.164V221.094H550.601V156.168ZM567.947 148.875L573.373 135H579.689L572.661 148.875H567.947Z" fill="white"/>
<path d="M622.751 221.094V156.168H629.778L669.896 208.731V156.168H677.012V221.094H669.896L629.778 168.353V221.094H622.751Z" fill="white"/>
<path d="M696.596 165.062C703.06 158.599 710.888 155.367 720.08 155.367C729.271 155.367 737.099 158.628 743.563 165.151C750.086 171.614 753.348 179.44 753.348 188.631C753.348 197.821 750.116 205.678 743.652 212.2C737.129 218.782 729.271 222.072 720.08 222.072C710.888 222.072 703.03 218.811 696.507 212.289C690.043 205.707 686.811 197.821 686.811 188.631C686.811 179.44 690.073 171.584 696.596 165.062ZM694.016 188.542C694.016 195.835 696.566 202.031 701.666 207.13C706.766 212.23 712.904 214.779 720.08 214.779C727.255 214.779 733.393 212.23 738.493 207.13C743.593 202.031 746.143 195.835 746.143 188.542C746.143 181.367 743.593 175.26 738.493 170.22C733.393 165.121 727.255 162.571 720.08 162.571C712.904 162.571 706.766 165.121 701.666 170.22C696.566 175.26 694.016 181.367 694.016 188.542Z" fill="white"/>
<path d="M759.71 211.844L764.246 207.219C769.583 212.556 775.84 215.254 783.015 215.313C783.134 215.313 783.253 215.313 783.371 215.313C787.641 215.313 791.17 214.275 793.957 212.2C796.744 210.125 798.138 207.279 798.138 203.662C798.138 201.29 797.456 199.244 796.092 197.525C794.728 195.805 792.949 194.471 790.754 193.523C788.56 192.515 786.129 191.596 783.46 190.765C780.851 189.876 778.212 188.957 775.543 188.008C772.875 187.06 770.443 185.963 768.249 184.718C766.055 183.413 764.276 181.634 762.912 179.381C761.548 177.128 760.866 174.489 760.866 171.465C760.866 166.781 762.734 162.898 766.47 159.814C770.266 156.731 775.395 155.189 781.859 155.189C785.714 155.189 789.598 156.049 793.512 157.769C797.426 159.429 800.688 162.038 803.297 165.595L798.227 169.598C796.507 167.226 794.194 165.358 791.288 163.994C788.382 162.571 785.358 161.83 782.215 161.771C777.886 161.771 774.387 162.69 771.718 164.528C769.109 166.307 767.804 168.619 767.804 171.465C767.804 173.6 768.486 175.438 769.85 176.98C771.214 178.462 772.993 179.678 775.188 180.626C777.382 181.516 779.784 182.375 782.393 183.206C785.061 183.976 787.73 184.866 790.399 185.874C793.067 186.882 795.499 188.068 797.693 189.431C799.887 190.795 801.666 192.663 803.03 195.035C804.394 197.406 805.076 200.193 805.076 203.395C805.076 209.087 803 213.593 798.849 216.914C794.757 220.234 789.568 221.894 783.282 221.894C783.164 221.894 783.045 221.894 782.927 221.894C773.794 221.894 766.055 218.544 759.71 211.844Z" fill="white"/>
<path d="M811.16 211.844L815.697 207.219C821.034 212.556 827.29 215.254 834.466 215.313C834.585 215.313 834.703 215.313 834.822 215.313C839.092 215.313 842.62 214.275 845.407 212.2C848.195 210.125 849.588 207.279 849.588 203.662C849.588 201.29 848.906 199.244 847.542 197.525C846.178 195.805 844.399 194.471 842.205 193.523C840.011 192.515 837.579 191.596 834.911 190.765C832.302 189.876 829.663 188.957 826.994 188.008C824.325 187.06 821.894 185.963 819.7 184.718C817.506 183.413 815.727 181.634 814.363 179.381C812.999 177.128 812.317 174.489 812.317 171.465C812.317 166.781 814.185 162.898 817.921 159.814C821.716 156.731 826.846 155.189 833.31 155.189C837.164 155.189 841.049 156.049 844.963 157.769C848.876 159.429 852.138 162.038 854.747 165.595L849.677 169.598C847.957 167.226 845.645 165.358 842.739 163.994C839.833 162.571 836.808 161.83 833.665 161.771C829.336 161.771 825.838 162.69 823.169 164.528C820.56 166.307 819.255 168.619 819.255 171.465C819.255 173.6 819.937 175.438 821.301 176.98C822.665 178.462 824.444 179.678 826.638 180.626C828.832 181.516 831.234 182.375 833.843 183.206C836.512 183.976 839.181 184.866 841.849 185.874C844.518 186.882 846.949 188.068 849.143 189.431C851.338 190.795 853.117 192.663 854.481 195.035C855.844 197.406 856.526 200.193 856.526 203.395C856.526 209.087 854.451 213.593 850.3 216.914C846.208 220.234 841.019 221.894 834.733 221.894C834.614 221.894 834.496 221.894 834.377 221.894C825.245 221.894 817.506 218.544 811.16 211.844Z" fill="white"/>
<path d="M872.751 165.062C879.215 158.599 887.043 155.367 896.235 155.367C905.427 155.367 913.255 158.628 919.719 165.151C926.242 171.614 929.504 179.44 929.504 188.631C929.504 197.821 926.272 205.678 919.808 212.2C913.285 218.782 905.427 222.072 896.235 222.072C887.043 222.072 879.186 218.811 872.663 212.289C866.199 205.707 862.967 197.821 862.967 188.631C862.967 179.44 866.228 171.584 872.751 165.062ZM870.172 188.542C870.172 195.835 872.722 202.031 877.822 207.13C882.922 212.23 889.06 214.779 896.235 214.779C903.411 214.779 909.549 212.23 914.648 207.13C919.748 202.031 922.299 195.835 922.299 188.542C922.299 181.367 919.748 175.26 914.648 170.22C909.549 165.121 903.411 162.571 896.235 162.571C889.06 162.571 882.922 165.121 877.822 170.22C872.722 175.26 870.172 181.367 870.172 188.542Z" fill="white"/>
<path d="M958.939 156.168H1002.17V170.932H974.239V181.782H1000.39V196.547H974.239V221.094H958.939V156.168Z" fill="white"/>
<path d="M1015.52 164.795C1022.1 158.213 1030.08 154.923 1039.45 154.923C1048.76 154.923 1056.71 158.213 1063.29 164.795C1069.87 171.377 1073.16 179.322 1073.16 188.631C1073.16 197.999 1069.87 206.004 1063.29 212.645C1056.71 219.226 1048.76 222.517 1039.45 222.517C1030.08 222.517 1022.1 219.226 1015.52 212.645C1008.94 206.004 1005.65 197.999 1005.65 188.631C1005.65 179.322 1008.94 171.377 1015.52 164.795ZM1026.73 201.349C1030.23 204.907 1034.47 206.686 1039.45 206.686C1044.37 206.686 1048.58 204.937 1052.08 201.438C1055.58 197.881 1057.33 193.612 1057.33 188.631C1057.33 183.71 1055.58 179.5 1052.08 176.001C1048.58 172.444 1044.37 170.665 1039.45 170.665C1034.53 170.665 1030.29 172.444 1026.73 176.001C1023.17 179.5 1021.39 183.71 1021.39 188.631C1021.39 193.612 1023.17 197.851 1026.73 201.349Z" fill="white"/>
<path d="M1087.12 164.795C1093.71 158.213 1101.68 154.923 1111.05 154.923C1116.33 154.923 1121.28 156.079 1125.91 158.391C1130.53 160.644 1134.42 163.757 1137.56 167.73L1124.75 177.158C1121.13 172.829 1116.57 170.665 1111.05 170.665C1106.13 170.665 1101.89 172.444 1098.33 176.001C1094.77 179.5 1093 183.71 1093 188.631C1093 193.612 1094.74 197.881 1098.24 201.438C1101.8 204.937 1106.07 206.686 1111.05 206.686C1116.63 206.686 1121.13 204.581 1124.57 200.371L1138.27 208.642C1135.13 212.971 1131.19 216.38 1126.44 218.871C1121.7 221.302 1116.57 222.517 1111.05 222.517C1101.68 222.517 1093.71 219.226 1087.12 212.645C1080.54 206.004 1077.25 197.999 1077.25 188.631C1077.25 179.322 1080.54 171.377 1087.12 164.795Z" fill="white"/>
<path d="M1151.43 164.795C1158.01 158.213 1165.99 154.923 1175.36 154.923C1184.67 154.923 1192.62 158.213 1199.2 164.795C1205.78 171.377 1209.07 179.322 1209.07 188.631C1209.07 197.999 1205.78 206.004 1199.2 212.645C1192.62 219.226 1184.67 222.517 1175.36 222.517C1165.99 222.517 1158.01 219.226 1151.43 212.645C1144.85 206.004 1141.56 197.999 1141.56 188.631C1141.56 179.322 1144.85 171.377 1151.43 164.795ZM1162.64 201.349C1166.14 204.907 1170.38 206.686 1175.36 206.686C1180.28 206.686 1184.49 204.937 1187.99 201.438C1191.49 197.881 1193.24 193.612 1193.24 188.631C1193.24 183.71 1191.49 179.5 1187.99 176.001C1184.49 172.444 1180.28 170.665 1175.36 170.665C1170.44 170.665 1166.2 172.444 1162.64 176.001C1159.08 179.5 1157.3 183.71 1157.3 188.631C1157.3 193.612 1159.08 197.851 1162.64 201.349Z" fill="white"/>
<path d="M50 309.122L54.5366 304.498C59.8738 309.834 66.1302 312.532 73.3058 312.591C73.4244 312.591 73.543 312.591 73.6616 312.591C77.9314 312.591 81.4599 311.554 84.2471 309.478C87.0343 307.403 88.4279 304.557 88.4279 300.94C88.4279 298.568 87.7459 296.523 86.382 294.803C85.018 293.084 83.2389 291.75 81.0448 290.801C78.8506 289.793 76.4192 288.874 73.7506 288.044C71.1413 287.154 68.5023 286.235 65.8337 285.287C63.1651 284.338 60.7337 283.241 58.5395 281.996C56.3453 280.691 54.5663 278.913 53.2023 276.659C51.8384 274.406 51.1564 271.768 51.1564 268.744C51.1564 264.059 53.0244 260.176 56.7605 257.093C60.5558 254.009 65.6855 252.468 72.1494 252.468C76.0041 252.468 79.8884 253.327 83.8023 255.047C87.7163 256.707 90.9779 259.316 93.5872 262.874L88.5169 266.876C86.7971 264.504 84.4843 262.636 81.5785 261.273C78.6727 259.85 75.6483 259.108 72.5052 259.049C68.1762 259.049 64.6773 259.968 62.0087 261.806C59.3994 263.585 58.0948 265.898 58.0948 268.744C58.0948 270.878 58.7767 272.716 60.1407 274.258C61.5046 275.74 63.2837 276.956 65.4779 277.905C67.6721 278.794 70.0738 279.654 72.6831 280.484C75.3517 281.255 78.0203 282.144 80.6889 283.152C83.3576 284.16 85.7889 285.346 87.9831 286.71C90.1773 288.073 91.9564 289.941 93.3203 292.313C94.6843 294.685 95.3663 297.471 95.3663 300.673C95.3663 306.365 93.2907 310.872 89.1395 314.192C85.0477 317.512 79.8587 319.173 73.5727 319.173C73.4541 319.173 73.3355 319.173 73.2169 319.173C64.0843 319.173 56.3453 315.823 50 309.122Z" fill="white"/>
<path d="M104.92 253.446H144.593V260.116H111.947V281.729H142.814V288.31H111.947V311.524H145.483V318.372H104.92V253.446Z" fill="white"/>
<path d="M154.351 253.446H161.379V293.558C161.379 299.487 163.01 304.053 166.271 307.255C169.592 310.457 173.832 312.058 178.992 312.058C184.21 312.058 188.51 310.457 191.89 307.255C195.329 304.053 197.049 299.487 197.049 293.558V253.446H204.165V293.647C204.165 301.414 201.793 307.611 197.049 312.235C192.305 316.86 186.375 319.173 179.258 319.173C172.083 319.173 166.123 316.86 161.379 312.235C156.694 307.611 154.351 301.414 154.351 293.647V253.446Z" fill="white"/>
<path d="M243.415 262.073C249.997 255.492 257.973 252.201 267.343 252.201C276.654 252.201 284.6 255.492 291.183 262.073C297.765 268.655 301.057 276.6 301.057 285.909C301.057 295.277 297.765 303.282 291.183 309.923C284.6 316.505 276.654 319.795 267.343 319.795C257.973 319.795 249.997 316.505 243.415 309.923C236.832 303.282 233.541 295.277 233.541 285.909C233.541 276.6 236.832 268.655 243.415 262.073ZM254.623 298.628C258.122 302.185 262.362 303.964 267.343 303.964C272.265 303.964 276.476 302.215 279.975 298.716C283.473 295.159 285.223 290.89 285.223 285.909C285.223 280.988 283.473 276.778 279.975 273.28C276.476 269.722 272.265 267.943 267.343 267.943C262.421 267.943 258.181 269.722 254.623 273.28C251.065 276.778 249.286 280.988 249.286 285.909C249.286 290.89 251.065 295.129 254.623 298.628Z" fill="white"/>
<path d="M350.6 318.372H307.369V253.446H322.758V302.986H350.6V318.372Z" fill="white"/>
<path d="M354.91 253.446H370.299V278.616H391.737V253.446H407.126V318.372H391.737V294.003H370.299V318.372H354.91V253.446Z" fill="white"/>
<path d="M431.667 253.446H448.213L469.828 318.372H452.927L449.547 306.988H430.422L427.042 318.372H410.052L431.667 253.446ZM445.366 292.758L439.94 274.436L434.603 292.758H445.366Z" fill="white"/>
<path d="M497.838 253.446C504.954 253.446 510.647 255.521 514.917 259.672C519.246 263.763 521.41 268.892 521.41 275.058C521.41 279.15 520.372 282.856 518.297 286.176C516.221 289.496 513.375 291.987 509.757 293.647L522.745 318.372H505.221L494.546 296.76H488.142V318.372H472.753V253.446H497.838ZM497.482 281.729C499.973 281.729 501.929 281.106 503.353 279.861C504.835 278.616 505.577 277.015 505.577 275.058C505.577 273.161 504.835 271.59 503.353 270.345C501.929 269.099 499.973 268.477 497.482 268.477H488.142V281.729H497.482Z" fill="white"/>
<path d="M550.601 253.446H590.274V260.116H557.628V281.729H588.495V288.31H557.628V311.524H591.164V318.372H550.601V253.446ZM567.947 246.153L573.373 232.278H579.689L572.661 246.153H567.947Z" fill="white"/>
<path d="M622.751 318.372V253.446H629.778L669.896 306.01V253.446H677.012V318.372H669.896L629.778 265.631V318.372H622.751Z" fill="white"/>
<path d="M696.596 262.34C703.06 255.877 710.888 252.646 720.08 252.646C729.271 252.646 737.099 255.907 743.563 262.429C750.086 268.892 753.348 276.719 753.348 285.909C753.348 295.1 750.116 302.956 743.652 309.478C737.129 316.06 729.271 319.351 720.08 319.351C710.888 319.351 703.03 316.089 696.507 309.567C690.043 302.986 686.811 295.1 686.811 285.909C686.811 276.719 690.073 268.862 696.596 262.34ZM694.016 285.82C694.016 293.113 696.566 299.309 701.666 304.409C706.766 309.508 712.904 312.058 720.08 312.058C727.255 312.058 733.393 309.508 738.493 304.409C743.593 299.309 746.143 293.113 746.143 285.82C746.143 278.646 743.593 272.538 738.493 267.499C733.393 262.399 727.255 259.85 720.08 259.85C712.904 259.85 706.766 262.399 701.666 267.499C696.566 272.538 694.016 278.646 694.016 285.82Z" fill="white"/>
<path d="M759.71 309.122L764.246 304.498C769.583 309.834 775.84 312.532 783.015 312.591C783.134 312.591 783.253 312.591 783.371 312.591C787.641 312.591 791.17 311.554 793.957 309.478C796.744 307.403 798.138 304.557 798.138 300.94C798.138 298.568 797.456 296.523 796.092 294.803C794.728 293.084 792.949 291.75 790.754 290.801C788.56 289.793 786.129 288.874 783.46 288.044C780.851 287.154 778.212 286.235 775.543 285.287C772.875 284.338 770.443 283.241 768.249 281.996C766.055 280.691 764.276 278.913 762.912 276.659C761.548 274.406 760.866 271.768 760.866 268.744C760.866 264.059 762.734 260.176 766.47 257.093C770.266 254.009 775.395 252.468 781.859 252.468C785.714 252.468 789.598 253.327 793.512 255.047C797.426 256.707 800.688 259.316 803.297 262.874L798.227 266.876C796.507 264.504 794.194 262.636 791.288 261.273C788.382 259.85 785.358 259.108 782.215 259.049C777.886 259.049 774.387 259.968 771.718 261.806C769.109 263.585 767.804 265.898 767.804 268.744C767.804 270.878 768.486 272.716 769.85 274.258C771.214 275.74 772.993 276.956 775.188 277.905C777.382 278.794 779.784 279.654 782.393 280.484C785.061 281.255 787.73 282.144 790.399 283.152C793.067 284.16 795.499 285.346 797.693 286.71C799.887 288.073 801.666 289.941 803.03 292.313C804.394 294.685 805.076 297.471 805.076 300.673C805.076 306.365 803 310.872 798.849 314.192C794.757 317.512 789.568 319.173 783.282 319.173C783.164 319.173 783.045 319.173 782.927 319.173C773.794 319.173 766.055 315.823 759.71 309.122Z" fill="white"/>
<path d="M811.16 309.122L815.697 304.498C821.034 309.834 827.29 312.532 834.466 312.591C834.585 312.591 834.703 312.591 834.822 312.591C839.092 312.591 842.62 311.554 845.407 309.478C848.195 307.403 849.588 304.557 849.588 300.94C849.588 298.568 848.906 296.523 847.542 294.803C846.178 293.084 844.399 291.75 842.205 290.801C840.011 289.793 837.579 288.874 834.911 288.044C832.302 287.154 829.663 286.235 826.994 285.287C824.325 284.338 821.894 283.241 819.7 281.996C817.506 280.691 815.727 278.913 814.363 276.659C812.999 274.406 812.317 271.768 812.317 268.744C812.317 264.059 814.185 260.176 817.921 257.093C821.716 254.009 826.846 252.468 833.31 252.468C837.164 252.468 841.049 253.327 844.963 255.047C848.876 256.707 852.138 259.316 854.747 262.874L849.677 266.876C847.957 264.504 845.645 262.636 842.739 261.273C839.833 259.85 836.808 259.108 833.665 259.049C829.336 259.049 825.838 259.968 823.169 261.806C820.56 263.585 819.255 265.898 819.255 268.744C819.255 270.878 819.937 272.716 821.301 274.258C822.665 275.74 824.444 276.956 826.638 277.905C828.832 278.794 831.234 279.654 833.843 280.484C836.512 281.255 839.181 282.144 841.849 283.152C844.518 284.16 846.949 285.346 849.143 286.71C851.338 288.073 853.117 289.941 854.481 292.313C855.844 294.685 856.526 297.471 856.526 300.673C856.526 306.365 854.451 310.872 850.3 314.192C846.208 317.512 841.019 319.173 834.733 319.173C834.614 319.173 834.496 319.173 834.377 319.173C825.245 319.173 817.506 315.823 811.16 309.122Z" fill="white"/>
<path d="M872.751 262.34C879.215 255.877 887.043 252.646 896.235 252.646C905.427 252.646 913.255 255.907 919.719 262.429C926.242 268.892 929.504 276.719 929.504 285.909C929.504 295.1 926.272 302.956 919.808 309.478C913.285 316.06 905.427 319.351 896.235 319.351C887.043 319.351 879.186 316.089 872.663 309.567C866.199 302.986 862.967 295.1 862.967 285.909C862.967 276.719 866.228 268.862 872.751 262.34ZM870.172 285.82C870.172 293.113 872.722 299.309 877.822 304.409C882.922 309.508 889.06 312.058 896.235 312.058C903.411 312.058 909.549 309.508 914.648 304.409C919.748 299.309 922.299 293.113 922.299 285.82C922.299 278.646 919.748 272.538 914.648 267.499C909.549 262.399 903.411 259.85 896.235 259.85C889.06 259.85 882.922 262.399 877.822 267.499C872.722 272.538 870.172 278.646 870.172 285.82Z" fill="white"/>
<path d="M958.939 253.446H1002.17V268.21H974.239V279.061H1000.39V293.825H974.239V318.372H958.939V253.446Z" fill="white"/>
<path d="M1015.52 262.073C1022.1 255.492 1030.08 252.201 1039.45 252.201C1048.76 252.201 1056.71 255.492 1063.29 262.073C1069.87 268.655 1073.16 276.6 1073.16 285.909C1073.16 295.277 1069.87 303.282 1063.29 309.923C1056.71 316.505 1048.76 319.795 1039.45 319.795C1030.08 319.795 1022.1 316.505 1015.52 309.923C1008.94 303.282 1005.65 295.277 1005.65 285.909C1005.65 276.6 1008.94 268.655 1015.52 262.073ZM1026.73 298.628C1030.23 302.185 1034.47 303.964 1039.45 303.964C1044.37 303.964 1048.58 302.215 1052.08 298.716C1055.58 295.159 1057.33 290.89 1057.33 285.909C1057.33 280.988 1055.58 276.778 1052.08 273.28C1048.58 269.722 1044.37 267.943 1039.45 267.943C1034.53 267.943 1030.29 269.722 1026.73 273.28C1023.17 276.778 1021.39 280.988 1021.39 285.909C1021.39 290.89 1023.17 295.129 1026.73 298.628Z" fill="white"/>
<path d="M1087.12 262.073C1093.71 255.492 1101.68 252.201 1111.05 252.201C1116.33 252.201 1121.28 253.357 1125.91 255.669C1130.53 257.923 1134.42 261.036 1137.56 265.008L1124.75 274.436C1121.13 270.107 1116.57 267.943 1111.05 267.943C1106.13 267.943 1101.89 269.722 1098.33 273.28C1094.77 276.778 1093 280.988 1093 285.909C1093 290.89 1094.74 295.159 1098.24 298.716C1101.8 302.215 1106.07 303.964 1111.05 303.964C1116.63 303.964 1121.13 301.859 1124.57 297.649L1138.27 305.921C1135.13 310.249 1131.19 313.658 1126.44 316.149C1121.7 318.58 1116.57 319.795 1111.05 319.795C1101.68 319.795 1093.71 316.505 1087.12 309.923C1080.54 303.282 1077.25 295.277 1077.25 285.909C1077.25 276.6 1080.54 268.655 1087.12 262.073Z" fill="white"/>
<path d="M1151.43 262.073C1158.01 255.492 1165.99 252.201 1175.36 252.201C1184.67 252.201 1192.62 255.492 1199.2 262.073C1205.78 268.655 1209.07 276.6 1209.07 285.909C1209.07 295.277 1205.78 303.282 1199.2 309.923C1192.62 316.505 1184.67 319.795 1175.36 319.795C1165.99 319.795 1158.01 316.505 1151.43 309.923C1144.85 303.282 1141.56 295.277 1141.56 285.909C1141.56 276.6 1144.85 268.655 1151.43 262.073ZM1162.64 298.628C1166.14 302.185 1170.38 303.964 1175.36 303.964C1180.28 303.964 1184.49 302.215 1187.99 298.716C1191.49 295.159 1193.24 290.89 1193.24 285.909C1193.24 280.988 1191.49 276.778 1187.99 273.28C1184.49 269.722 1180.28 267.943 1175.36 267.943C1170.44 267.943 1166.2 269.722 1162.64 273.28C1159.08 276.778 1157.3 280.988 1157.3 285.909C1157.3 290.89 1159.08 295.129 1162.64 298.628Z" fill="white"/>
<path d="M50.9266 407.327L55.4632 402.702C60.8004 408.039 67.0568 410.737 74.2324 410.796C74.351 410.796 74.4696 410.796 74.5882 410.796C78.858 410.796 82.3865 409.758 85.1737 407.683C87.9609 405.608 89.3545 402.762 89.3545 399.145C89.3545 396.773 88.6725 394.727 87.3086 393.008C85.9446 391.288 84.1655 389.954 81.9714 389.006C79.7772 387.998 77.3458 387.078 74.6772 386.248C72.0679 385.359 69.4289 384.44 66.7603 383.491C64.0917 382.543 61.6603 381.446 59.4661 380.2C57.2719 378.896 55.4929 377.117 54.1289 374.864C52.765 372.611 52.083 369.972 52.083 366.948C52.083 362.264 53.951 358.38 57.6871 355.297C61.4824 352.214 66.6121 350.672 73.076 350.672C76.9307 350.672 80.815 351.532 84.7289 353.252C88.6429 354.912 91.9045 357.521 94.5138 361.078L89.4435 365.081C87.7237 362.709 85.4109 360.841 82.5051 359.477C79.5993 358.054 76.5749 357.313 73.4318 357.254C69.1028 357.254 65.6039 358.173 62.9353 360.011C60.326 361.79 59.0214 364.102 59.0214 366.948C59.0214 369.083 59.7033 370.921 61.0673 372.463C62.4312 373.945 64.2103 375.161 66.4045 376.109C68.5987 376.999 71.0004 377.858 73.6097 378.688C76.2783 379.459 78.9469 380.349 81.6155 381.357C84.2841 382.365 86.7155 383.551 88.9097 384.914C91.1039 386.278 92.883 388.146 94.2469 390.518C95.6109 392.889 96.2929 395.676 96.2929 398.878C96.2929 404.57 94.2173 409.076 90.0661 412.397C85.9743 415.717 80.7853 417.377 74.4993 417.377C74.3807 417.377 74.2621 417.377 74.1435 417.377C65.0109 417.377 57.2719 414.027 50.9266 407.327Z" fill="white"/>
<path d="M105.846 351.651H145.52V358.321H112.874V379.934H143.741V386.515H112.874V409.729H146.409V416.577H105.846V351.651Z" fill="white"/>
<path d="M155.278 351.651H162.305V391.763C162.305 397.692 163.936 402.258 167.198 405.459C170.519 408.661 174.759 410.262 179.918 410.262C185.137 410.262 189.436 408.661 192.816 405.459C196.256 402.258 197.976 397.692 197.976 391.763V351.651H205.092V391.852C205.092 399.619 202.72 405.815 197.976 410.44C193.232 415.065 187.301 417.377 180.185 417.377C173.009 417.377 167.05 415.065 162.305 410.44C157.62 405.815 155.278 399.619 155.278 391.852V351.651Z" fill="white"/>
<path d="M244.341 360.278C250.924 353.696 258.9 350.406 268.27 350.406C277.58 350.406 285.527 353.696 292.109 360.278C298.692 366.859 301.983 374.805 301.983 384.114C301.983 393.482 298.692 401.487 292.109 408.128C285.527 414.709 277.58 418 268.27 418C258.9 418 250.924 414.709 244.341 408.128C237.759 401.487 234.467 393.482 234.467 384.114C234.467 374.805 237.759 366.859 244.341 360.278ZM255.549 396.832C259.048 400.39 263.288 402.169 268.27 402.169C273.192 402.169 277.402 400.419 280.901 396.921C284.4 393.364 286.149 389.094 286.149 384.114C286.149 379.192 284.4 374.983 280.901 371.484C277.402 367.927 273.192 366.148 268.27 366.148C263.348 366.148 259.108 367.927 255.549 371.484C251.991 374.983 250.212 379.192 250.212 384.114C250.212 389.094 251.991 393.334 255.549 396.832Z" fill="white"/>
<path d="M351.527 416.577H308.295V351.651H323.684V401.19H351.527V416.577Z" fill="white"/>
<path d="M355.837 351.651H371.226V376.821H392.664V351.651H408.053V416.577H392.664V392.207H371.226V416.577H355.837V351.651Z" fill="white"/>
<path d="M432.594 351.651H449.139L470.755 416.577H453.854L450.474 405.193H431.349L427.968 416.577H410.978L432.594 351.651ZM446.293 390.962L440.867 372.641L435.529 390.962H446.293Z" fill="white"/>
<path d="M498.764 351.651C505.88 351.651 511.573 353.726 515.843 357.876C520.172 361.968 522.337 367.097 522.337 373.263C522.337 377.354 521.299 381.06 519.224 384.381C517.148 387.701 514.301 390.191 510.684 391.852L523.671 416.577H506.147L495.473 394.965H489.068V416.577H473.679V351.651H498.764ZM498.408 379.934C500.899 379.934 502.856 379.311 504.279 378.066C505.762 376.821 506.503 375.22 506.503 373.263C506.503 371.366 505.762 369.794 504.279 368.549C502.856 367.304 500.899 366.682 498.408 366.682H489.068V379.934H498.408Z" fill="white"/>
<path d="M551.528 351.651H591.201V358.321H558.555V379.934H589.422V386.515H558.555V409.729H592.09V416.577H551.528V351.651ZM568.873 344.358L574.3 330.483H580.615L573.588 344.358H568.873Z" fill="white"/>
<path d="M623.677 416.577V351.651H630.704L670.823 404.214V351.651H677.939V416.577H670.823L630.704 363.835V416.577H623.677Z" fill="white"/>
<path d="M697.522 360.545C703.986 354.082 711.814 350.85 721.006 350.85C730.198 350.85 738.026 354.111 744.49 360.634C751.013 367.097 754.275 374.923 754.275 384.114C754.275 393.304 751.043 401.161 744.579 407.683C738.056 414.264 730.198 417.555 721.006 417.555C711.814 417.555 703.957 414.294 697.433 407.772C690.969 401.19 687.737 393.304 687.737 384.114C687.737 374.923 690.999 367.067 697.522 360.545ZM694.943 384.025C694.943 391.318 697.493 397.514 702.593 402.613C707.693 407.713 713.831 410.262 721.006 410.262C728.182 410.262 734.319 407.713 739.419 402.613C744.519 397.514 747.07 391.318 747.07 384.025C747.07 376.85 744.519 370.743 739.419 365.703C734.319 360.604 728.182 358.054 721.006 358.054C713.831 358.054 707.693 360.604 702.593 365.703C697.493 370.743 694.943 376.85 694.943 384.025Z" fill="white"/>
<path d="M760.636 407.327L765.173 402.702C770.51 408.039 776.766 410.737 783.942 410.796C784.061 410.796 784.179 410.796 784.298 410.796C788.568 410.796 792.096 409.758 794.883 407.683C797.671 405.608 799.064 402.762 799.064 399.145C799.064 396.773 798.382 394.727 797.018 393.008C795.654 391.288 793.875 389.954 791.681 389.006C789.487 387.998 787.055 387.078 784.387 386.248C781.778 385.359 779.139 384.44 776.47 383.491C773.801 382.543 771.37 381.446 769.176 380.2C766.982 378.896 765.203 377.117 763.839 374.864C762.475 372.611 761.793 369.972 761.793 366.948C761.793 362.264 763.661 358.38 767.397 355.297C771.192 352.214 776.322 350.672 782.786 350.672C786.64 350.672 790.525 351.532 794.439 353.252C798.353 354.912 801.614 357.521 804.223 361.078L799.153 365.081C797.433 362.709 795.121 360.841 792.215 359.477C789.309 358.054 786.285 357.313 783.142 357.254C778.812 357.254 775.314 358.173 772.645 360.011C770.036 361.79 768.731 364.102 768.731 366.948C768.731 369.083 769.413 370.921 770.777 372.463C772.141 373.945 773.92 375.161 776.114 376.109C778.308 376.999 780.71 377.858 783.319 378.688C785.988 379.459 788.657 380.349 791.325 381.357C793.994 382.365 796.425 383.551 798.619 384.914C800.814 386.278 802.593 388.146 803.957 390.518C805.321 392.889 806.003 395.676 806.003 398.878C806.003 404.57 803.927 409.076 799.776 412.397C795.684 415.717 790.495 417.377 784.209 417.377C784.09 417.377 783.972 417.377 783.853 417.377C774.721 417.377 766.982 414.027 760.636 407.327Z" fill="white"/>
<path d="M812.087 407.327L816.623 402.702C821.961 408.039 828.217 410.737 835.393 410.796C835.511 410.796 835.63 410.796 835.748 410.796C840.018 410.796 843.547 409.758 846.334 407.683C849.121 405.608 850.515 402.762 850.515 399.145C850.515 396.773 849.833 394.727 848.469 393.008C847.105 391.288 845.326 389.954 843.132 389.006C840.937 387.998 838.506 387.078 835.837 386.248C833.228 385.359 830.589 384.44 827.921 383.491C825.252 382.543 822.821 381.446 820.626 380.2C818.432 378.896 816.653 377.117 815.289 374.864C813.925 372.611 813.243 369.972 813.243 366.948C813.243 362.264 815.111 358.38 818.847 355.297C822.643 352.214 827.772 350.672 834.236 350.672C838.091 350.672 841.975 351.532 845.889 353.252C849.803 354.912 853.065 357.521 855.674 361.078L850.604 365.081C848.884 362.709 846.571 360.841 843.665 359.477C840.759 358.054 837.735 357.313 834.592 357.254C830.263 357.254 826.764 358.173 824.096 360.011C821.486 361.79 820.182 364.102 820.182 366.948C820.182 369.083 820.864 370.921 822.227 372.463C823.591 373.945 825.37 375.161 827.565 376.109C829.759 376.999 832.161 377.858 834.77 378.688C837.439 379.459 840.107 380.349 842.776 381.357C845.444 382.365 847.876 383.551 850.07 384.914C852.264 386.278 854.043 388.146 855.407 390.518C856.771 392.889 857.453 395.676 857.453 398.878C857.453 404.57 855.378 409.076 851.226 412.397C847.134 415.717 841.945 417.377 835.659 417.377C835.541 417.377 835.422 417.377 835.304 417.377C826.171 417.377 818.432 414.027 812.087 407.327Z" fill="white"/>
<path d="M873.678 360.545C880.142 354.082 887.97 350.85 897.162 350.85C906.354 350.85 914.182 354.111 920.646 360.634C927.169 367.097 930.43 374.923 930.43 384.114C930.43 393.304 927.198 401.161 920.734 407.683C914.211 414.264 906.354 417.555 897.162 417.555C887.97 417.555 880.112 414.294 873.589 407.772C867.125 401.19 863.893 393.304 863.893 384.114C863.893 374.923 867.155 367.067 873.678 360.545ZM871.098 384.025C871.098 391.318 873.648 397.514 878.748 402.613C883.848 407.713 889.986 410.262 897.162 410.262C904.337 410.262 910.475 407.713 915.575 402.613C920.675 397.514 923.225 391.318 923.225 384.025C923.225 376.85 920.675 370.743 915.575 365.703C910.475 360.604 904.337 358.054 897.162 358.054C889.986 358.054 883.848 360.604 878.748 365.703C873.648 370.743 871.098 376.85 871.098 384.025Z" fill="white"/>
<path d="M959.866 351.651H1003.1V366.415H975.166V377.265H1001.32V392.029H975.166V416.577H959.866V351.651Z" fill="white"/>
<path d="M1016.45 360.278C1023.03 353.696 1031.01 350.406 1040.38 350.406C1049.69 350.406 1057.63 353.696 1064.22 360.278C1070.8 366.859 1074.09 374.805 1074.09 384.114C1074.09 393.482 1070.8 401.487 1064.22 408.128C1057.63 414.709 1049.69 418 1040.38 418C1031.01 418 1023.03 414.709 1016.45 408.128C1009.86 401.487 1006.57 393.482 1006.57 384.114C1006.57 374.805 1009.86 366.859 1016.45 360.278ZM1027.66 396.832C1031.15 400.39 1035.39 402.169 1040.38 402.169C1045.3 402.169 1049.51 400.419 1053.01 396.921C1056.51 393.364 1058.26 389.094 1058.26 384.114C1058.26 379.192 1056.51 374.983 1053.01 371.484C1049.51 367.927 1045.3 366.148 1040.38 366.148C1035.45 366.148 1031.21 367.927 1027.66 371.484C1024.1 374.983 1022.32 379.192 1022.32 384.114C1022.32 389.094 1024.1 393.334 1027.66 396.832Z" fill="white"/>
<path d="M1088.05 360.278C1094.63 353.696 1102.61 350.406 1111.98 350.406C1117.26 350.406 1122.21 351.562 1126.83 353.874C1131.46 356.127 1135.34 359.24 1138.49 363.213L1125.68 372.641C1122.06 368.312 1117.49 366.148 1111.98 366.148C1107.06 366.148 1102.82 367.927 1099.26 371.484C1095.7 374.983 1093.92 379.192 1093.92 384.114C1093.92 389.094 1095.67 393.364 1099.17 396.921C1102.73 400.419 1107 402.169 1111.98 402.169C1117.55 402.169 1122.06 400.064 1125.5 395.854L1139.2 404.125C1136.06 408.454 1132.11 411.863 1127.37 414.353C1122.62 416.784 1117.49 418 1111.98 418C1102.61 418 1094.63 414.709 1088.05 408.128C1081.47 401.487 1078.18 393.482 1078.18 384.114C1078.18 374.805 1081.47 366.859 1088.05 360.278Z" fill="white"/>
<path d="M1152.36 360.278C1158.94 353.696 1166.92 350.406 1176.29 350.406C1185.6 350.406 1193.54 353.696 1200.13 360.278C1206.71 366.859 1210 374.805 1210 384.114C1210 393.482 1206.71 401.487 1200.13 408.128C1193.54 414.709 1185.6 418 1176.29 418C1166.92 418 1158.94 414.709 1152.36 408.128C1145.78 401.487 1142.48 393.482 1142.48 384.114C1142.48 374.805 1145.78 366.859 1152.36 360.278ZM1163.57 396.832C1167.07 400.39 1171.31 402.169 1176.29 402.169C1181.21 402.169 1185.42 400.419 1188.92 396.921C1192.42 393.364 1194.17 389.094 1194.17 384.114C1194.17 379.192 1192.42 374.983 1188.92 371.484C1185.42 367.927 1181.21 366.148 1176.29 366.148C1171.36 366.148 1167.12 367.927 1163.57 371.484C1160.01 374.983 1158.23 379.192 1158.23 384.114C1158.23 389.094 1160.01 393.334 1163.57 396.832Z" fill="white"/>
</g>
<defs>
<filter id="filter0_f_571_16" x="20.7" y="105.7" width="1218.6" height="341.6" filterUnits="userSpaceOnUse" color-interpolation-filters="sRGB">
<feFlood flood-opacity="0" result="BackgroundImageFix"/>
<feBlend mode="normal" in="SourceGraphic" in2="BackgroundImageFix" result="shape"/>
<feGaussianBlur stdDeviation="14.65" result="effect1_foregroundBlur_571_16"/>
</filter>
<linearGradient id="paint0_linear_571_16" x1="1260" y1="295.5" x2="-2.42549e-05" y2="295.5" gradientUnits="userSpaceOnUse">
<stop stop-color="#3D405B"/>
<stop offset="1" stop-color="#97CBB2"/>
</linearGradient>
</defs>
</svg>
