<svg width="206" height="51" viewBox="0 0 206 51" fill="none" xmlns="http://www.w3.org/2000/svg">
<path d="M189.691 1.7807L187.218 12.2855C185.361 11.3934 183.285 10.8928 181.097 10.8897L181.079 10.7926V0.230164C184.047 0.230164 186.935 0.749032 189.687 1.7807H189.691Z" fill="#0165A3"/>
<path d="M173.666 3.32819L181.079 10.8897L176.931 15.8872L170.653 6.83283L173.666 3.32819Z" fill="#0163B8"/>
<path d="M181.097 10.8898H181.079V10.7927L181.097 10.8898Z" fill="#0163B8"/>
<path d="M198.29 7.22128L191.802 15.7538C190.525 14.3064 188.965 13.12 187.214 12.2825L189.687 1.77771C190.051 1.91425 190.419 2.0599 190.78 2.21769C193.571 3.41321 196.093 5.09422 198.287 7.21825L198.29 7.22128Z" fill="#008BBA"/>
<path d="M176.931 15.8873L173.688 19.7985L164.369 14.1426L170.653 6.83289L176.931 15.8873Z" fill="#6963AF"/>
<path d="M203.824 15.156L194.527 20.2537C193.893 18.5848 192.965 17.0616 191.802 15.7508L198.29 7.21826C198.426 7.35177 198.566 7.49135 198.703 7.62789C200.86 9.82171 202.583 12.3493 203.824 15.156Z" fill="#019AB0"/>
<path d="M173.687 19.7985L169.986 24.259L157.235 22.6356C157.502 22.135 157.842 21.6677 158.261 21.2459L164.369 14.1395L173.687 19.7955V19.7985Z" fill="#AB4A9A"/>
<path d="M205.967 24.2195L195.48 25.0904C195.435 23.3912 195.101 21.7648 194.527 20.2537L203.824 15.156C203.897 15.3229 203.97 15.4898 204.04 15.6597C205.178 18.3876 205.824 21.2611 205.967 24.2195Z" fill="#00AC99"/>
<path d="M172.322 29.5508L161.016 32.9523L158.261 29.748C156.356 27.8273 156.013 24.9174 157.236 22.6417L169.986 24.265L168.96 25.503L172.322 29.5538V29.5508Z" fill="#D04F89"/>
<path d="M206 25.497C206 28.1793 205.593 30.801 204.783 33.3134L194.837 29.8361C195.258 28.4645 195.486 27.005 195.486 25.4939C195.486 25.3604 195.486 25.2209 195.48 25.0873L205.967 24.2165C205.988 24.6413 206 25.0661 206 25.4939V25.497Z" fill="#02B47C"/>
<path d="M175.481 33.3589L167.373 40.3439L161.016 32.9493L172.322 29.5508L175.481 33.3589Z" fill="#EF527C"/>
<path d="M204.783 33.3164C204.568 33.9961 204.319 34.6727 204.04 35.3373C203.111 37.5675 201.883 39.6248 200.381 41.4848L192.643 34.2055C193.602 32.9007 194.351 31.4291 194.84 29.8421L204.786 33.3194L204.783 33.3164Z" fill="#00BB6F"/>
<path d="M178.694 37.2307L173.867 47.4594L173.666 47.6657L167.373 40.3439L175.481 33.3589L178.694 37.2307Z" fill="#FF6B5D"/>
<path d="M200.381 41.4848C199.859 42.1402 199.297 42.7653 198.703 43.3661C197.009 45.0805 195.113 46.5248 193.041 47.6718L188.89 37.7708C190.34 36.818 191.614 35.6073 192.643 34.2054L200.381 41.4848Z" fill="#7DC052"/>
<path d="M178.694 37.2307L181.079 40.1072L173.867 47.4594L178.694 37.2307Z" fill="#E3AC41"/>
<path d="M183.667 39.8705L183.431 50.6576C182.654 50.7304 181.868 50.7698 181.079 50.7698V40.1072C181.962 40.1072 182.827 40.0253 183.667 39.8705Z" fill="#E3AC41"/>
<path d="M193.041 47.6717C192.309 48.0783 191.56 48.4455 190.783 48.7793C188.428 49.7867 185.965 50.4178 183.431 50.6575L183.668 39.8705C185.564 39.5216 187.33 38.7933 188.89 37.7708L193.041 47.6717Z" fill="#C5BA4A"/>
<path d="M4.96111 7.80385C8.23515 4.45093 12.3709 2.77295 17.3654 2.77295C22.3599 2.77295 26.5048 4.46003 29.797 7.83116C33.0893 11.2023 34.7339 15.4382 34.7339 20.5389C34.7339 25.6396 33.0953 29.8664 29.8213 33.2193C26.5139 36.5753 22.3599 38.2502 17.3654 38.2502C12.3709 38.2502 8.22604 36.5723 4.93381 33.2193C1.6446 29.8634 0 25.6366 0 20.5359C0 15.4352 1.65371 11.1902 4.96111 7.80385ZM5.77128 20.5359C5.77128 23.9586 6.88487 26.8503 9.11207 29.214C11.3393 31.5747 14.0914 32.7581 17.3654 32.7581C20.6395 32.7581 23.3491 31.5778 25.5945 29.214C27.8399 26.8533 28.9626 23.9616 28.9626 20.5359C28.9626 17.1101 27.8399 14.2123 25.5945 11.8334C23.3491 9.45452 20.6061 8.26507 17.3654 8.26507C14.1248 8.26507 11.3393 9.44542 9.11207 11.8092C6.88487 14.1699 5.77128 17.0798 5.77128 20.5359Z" fill="#3D405B"/>
<path d="M57.822 37.6858H34.7339V3.33728H40.6569V32.397H57.822V37.6858Z" fill="#3D405B"/>
<path d="M57.822 3.33728H63.7966V18.2783H80.9618V3.33728H86.9879V37.6858H80.9618V23.825H63.7966V37.6858H57.822V3.33728Z" fill="#3D405B"/>
<path d="M100.151 3.33728H106.884L119.795 37.6858H113.465L110.832 29.9847H96.0484L93.3145 37.6858H86.9849L100.148 3.33728H100.151ZM97.7203 24.9022H109.214L103.543 8.72927L97.7203 24.9022Z" fill="#3D405B"/>
<path d="M135.643 3.33728C139.017 3.33728 141.803 4.41446 143.997 6.57187C146.19 8.72927 147.289 11.4662 147.289 14.7858C147.289 17.5258 146.57 19.8592 145.138 21.7951C143.702 23.7279 141.769 25.0387 139.339 25.7215L147.592 37.6828H140.556L133.213 26.4891H125.669V37.6828H119.795V3.33728H135.643ZM125.669 21.5129H134.226C136.353 21.5129 138.065 20.9303 139.366 19.7681C140.665 18.606 141.314 17.0463 141.314 15.0953C141.314 13.1442 140.68 11.5967 139.415 10.3466C138.15 9.09642 136.52 8.47135 134.53 8.47135H125.669V21.5129Z" fill="#3D405B"/>
<path d="M58.3353 43.5542C58.7905 43.0809 59.367 42.8442 60.0649 42.8442C60.5686 42.8442 61.0177 42.9716 61.4091 43.2295C61.8036 43.4875 62.0858 43.8364 62.2587 44.2764L61.5396 44.6405C61.4182 44.331 61.224 44.0822 60.957 43.891C60.69 43.7029 60.3896 43.6088 60.0497 43.6088C59.6037 43.6088 59.2244 43.7727 58.9119 44.1034C58.6024 44.4342 58.4446 44.8377 58.4446 45.3202C58.4446 45.8026 58.5993 46.2001 58.9119 46.5309C59.2214 46.8616 59.6037 47.0255 60.0558 47.0255C60.3865 47.0255 60.6839 46.9344 60.9479 46.7493C61.2149 46.5643 61.4091 46.3215 61.5366 46.015L62.2769 46.3458C62.104 46.7858 61.8157 47.1347 61.4182 47.3987C61.0207 47.6627 60.5686 47.7932 60.0588 47.7932C59.367 47.7932 58.7905 47.5595 58.3293 47.0892C57.8681 46.6189 57.6375 46.0302 57.6375 45.3232C57.6375 44.6162 57.8681 44.0276 58.3293 43.5542H58.3353Z" fill="#3D405B"/>
<path d="M62.9961 47.7142V42.923H66.349V43.6452H63.8002V44.9409H66.2641V45.6509H63.8002V46.989H66.4279V47.7112H62.9961V47.7142Z" fill="#3D405B"/>
<path d="M68.0816 42.923L70.6244 46.4307V42.923H71.4072V47.7142H70.6456L68.0907 44.2339V47.7142H67.3079V42.923H68.0846H68.0816Z" fill="#3D405B"/>
<path d="M72.105 42.923H75.9404V43.6452H74.4444V47.7112H73.61V43.6452H72.105V42.923Z" fill="#3D405B"/>
<path d="M78.8474 42.923C79.3177 42.923 79.7061 43.0748 80.0126 43.3752C80.3191 43.6755 80.4708 44.0579 80.4708 44.5221C80.4708 44.9044 80.3706 45.2291 80.1704 45.4992C79.9701 45.7692 79.7001 45.9513 79.3632 46.0484L80.5133 47.7173H79.5332L78.5106 46.1576H77.4577V47.7173H76.6384V42.9261H78.8474V42.923ZM77.4577 45.4567H78.6502C78.9475 45.4567 79.1842 45.3748 79.3663 45.2139C79.5483 45.0531 79.6394 44.8347 79.6394 44.5616C79.6394 44.2885 79.5514 44.073 79.3754 43.9001C79.1994 43.7271 78.9718 43.6391 78.6927 43.6391H77.4577V45.4567Z" fill="#3D405B"/>
<path d="M81.7363 43.5451C82.1914 43.0778 82.7679 42.8442 83.4658 42.8442C84.1637 42.8442 84.7402 43.0778 85.1984 43.5481C85.6566 44.0185 85.8872 44.6102 85.8872 45.3202C85.8872 46.0302 85.6596 46.6219 85.2015 47.0892C84.7402 47.5565 84.1607 47.7901 83.4658 47.7901C82.771 47.7901 82.1914 47.5565 81.7332 47.0892C81.275 46.6219 81.0444 46.0332 81.0444 45.3202C81.0444 44.6071 81.275 44.0185 81.7363 43.5451ZM81.8485 45.3202C81.8485 45.7966 82.0033 46.2001 82.3158 46.5309C82.6253 46.8616 83.0107 47.0255 83.4658 47.0255C83.921 47.0255 84.3003 46.8616 84.6128 46.5309C84.9253 46.2001 85.0831 45.7996 85.0831 45.3202C85.0831 44.8408 84.9253 44.4372 84.6128 44.1065C84.3003 43.7757 83.9179 43.6088 83.4658 43.6088C83.0137 43.6088 82.6253 43.7727 82.3158 44.1034C82.0063 44.4342 81.8485 44.8377 81.8485 45.3202Z" fill="#3D405B"/>
<path d="M88.6908 43.5451C89.146 43.0778 89.7225 42.8442 90.4204 42.8442C91.1183 42.8442 91.6948 43.0778 92.153 43.5481C92.6112 44.0185 92.8418 44.6102 92.8418 45.3202C92.8418 46.0302 92.6142 46.6219 92.156 47.0892C91.6948 47.5565 91.1153 47.7901 90.4204 47.7901C89.7255 47.7901 89.146 47.5565 88.6878 47.0892C88.2296 46.6219 87.999 46.0332 87.999 45.3202C87.999 44.6071 88.2296 44.0185 88.6908 43.5451ZM88.8031 45.3202C88.8031 45.7966 88.9579 46.2001 89.2704 46.5309C89.5829 46.8616 89.9653 47.0255 90.4204 47.0255C90.8756 47.0255 91.2548 46.8616 91.5674 46.5309C91.8799 46.2001 92.0377 45.7996 92.0377 45.3202C92.0377 44.8408 91.8799 44.4372 91.5674 44.1065C91.2548 43.7757 90.8725 43.6088 90.4204 43.6088C89.9683 43.6088 89.5799 43.7727 89.2704 44.1034C88.9609 44.4342 88.8031 44.8377 88.8031 45.3202Z" fill="#3D405B"/>
<path d="M93.6821 42.923H96.944V43.6543H94.5014V45.0015H96.7529V45.7176H94.5014V47.7142H93.6821V42.923Z" fill="#3D405B"/>
<path d="M97.311 42.923H101.146V43.6452H99.6505V47.7112H98.8161V43.6452H97.311V42.923Z" fill="#3D405B"/>
<path d="M102.63 42.923H103.571L105.37 47.7142H104.487L104.12 46.6401H102.06L101.677 47.7142H100.794L102.63 42.923ZM102.29 45.93H103.892L103.101 43.6755L102.287 45.93H102.29Z" fill="#3D405B"/>
<path d="M109.23 47.7142H106.01V42.923H106.836V46.9769H109.23V47.7142Z" fill="#3D405B"/>
<path d="M110.72 42.923L112.507 45.8147L114.294 42.923H115.092V47.7142H114.288V44.3431L112.792 46.7402H112.234L110.729 44.3492V47.7142H109.931V42.923H110.723H110.72Z" fill="#3D405B"/>
<path d="M116.609 43.5451C117.064 43.0778 117.641 42.8442 118.339 42.8442C119.037 42.8442 119.613 43.0778 120.071 43.5481C120.53 44.0185 120.76 44.6102 120.76 45.3202C120.76 46.0302 120.533 46.6219 120.075 47.0892C119.613 47.5565 119.034 47.7901 118.339 47.7901C117.644 47.7901 117.064 47.5565 116.606 47.0892C116.148 46.6219 115.917 46.0332 115.917 45.3202C115.917 44.6071 116.148 44.0185 116.609 43.5451ZM116.722 45.3202C116.722 45.7966 116.876 46.2001 117.189 46.5309C117.498 46.8616 117.884 47.0255 118.339 47.0255C118.794 47.0255 119.173 46.8616 119.486 46.5309C119.798 46.2001 119.956 45.7996 119.956 45.3202C119.956 44.8408 119.798 44.4372 119.486 44.1065C119.173 43.7757 118.791 43.6088 118.339 43.6088C117.887 43.6088 117.498 43.7727 117.189 44.1034C116.879 44.4342 116.722 44.8377 116.722 45.3202Z" fill="#3D405B"/>
<path d="M124.82 47.7142H121.601V42.923H122.426V46.9769H124.82V47.7142Z" fill="#3D405B"/>
<path d="M125.011 45.3232C125.011 44.6132 125.242 44.0215 125.7 43.5511C126.158 43.0808 126.738 42.8472 127.433 42.8472C128.128 42.8472 128.707 43.0808 129.165 43.5511C129.624 44.0215 129.854 44.6132 129.854 45.3232C129.854 46.0332 129.627 46.6249 129.168 47.0922C128.707 47.5595 128.128 47.7931 127.433 47.7931C126.738 47.7931 126.158 47.5595 125.7 47.0922C125.242 46.6249 125.011 46.0363 125.011 45.3232ZM125.816 45.3232C125.816 45.7996 125.97 46.2031 126.283 46.5339C126.592 46.8646 126.978 47.0285 127.433 47.0285C127.888 47.0285 128.267 46.8646 128.58 46.5339C128.892 46.2031 129.05 45.8026 129.05 45.3232C129.05 44.8438 128.892 44.4402 128.58 44.1095C128.267 43.7787 127.885 43.6118 127.433 43.6118C126.981 43.6118 126.592 43.7757 126.283 44.1064C125.973 44.4372 125.816 44.8407 125.816 45.3232ZM127.029 42.5438L127.403 41.3846H128.37L127.87 42.5438H127.029Z" fill="#3D405B"/>
<path d="M130.422 45.3141C130.422 44.5919 130.652 44.0002 131.113 43.536C131.575 43.0717 132.163 42.8381 132.879 42.8381C133.316 42.8381 133.717 42.9321 134.075 43.1233C134.436 43.3145 134.724 43.5845 134.94 43.9335L134.306 44.4493C134.169 44.1883 133.972 43.982 133.717 43.8333C133.459 43.6846 133.186 43.6118 132.895 43.6118C132.406 43.6118 132.009 43.7726 131.705 44.0973C131.402 44.422 131.25 44.8286 131.25 45.3141C131.25 45.7996 131.405 46.2213 131.717 46.546C132.03 46.8707 132.421 47.0315 132.898 47.0315C133.325 47.0315 133.677 46.9041 133.954 46.6461C134.23 46.3882 134.366 46.0696 134.366 45.6873H132.776V45.0137H135.225V45.4203C135.225 46.1182 135.003 46.6886 134.563 47.1316C134.124 47.5747 133.562 47.7962 132.879 47.7962C132.197 47.7962 131.575 47.5655 131.113 47.1013C130.652 46.637 130.422 46.0423 130.422 45.311V45.3141Z" fill="#3D405B"/>
<path d="M136.026 47.7142V42.923H136.851V47.7142H136.026Z" fill="#3D405B"/>
<path d="M138.371 43.5542C138.827 43.0809 139.403 42.8442 140.101 42.8442C140.605 42.8442 141.054 42.9716 141.445 43.2295C141.84 43.4875 142.122 43.8364 142.295 44.2764L141.576 44.6405C141.454 44.331 141.26 44.0822 140.993 43.891C140.726 43.7029 140.426 43.6088 140.086 43.6088C139.64 43.6088 139.261 43.7727 138.948 44.1034C138.639 44.4342 138.481 44.8377 138.481 45.3202C138.481 45.8026 138.635 46.2001 138.948 46.5309C139.261 46.8616 139.64 47.0255 140.092 47.0255C140.423 47.0255 140.72 46.9344 140.984 46.7493C141.251 46.5643 141.445 46.3215 141.573 46.015L142.313 46.3458C142.14 46.7858 141.852 47.1347 141.454 47.3987C141.057 47.6627 140.605 47.7932 140.095 47.7932C139.403 47.7932 138.827 47.5595 138.365 47.0892C137.904 46.6189 137.674 46.0302 137.674 45.3232C137.674 44.6162 137.904 44.0276 138.365 43.5542H138.371Z" fill="#3D405B"/>
<path d="M143.442 43.5451C143.897 43.0778 144.474 42.8442 145.172 42.8442C145.87 42.8442 146.446 43.0778 146.904 43.5481C147.362 44.0185 147.593 44.6102 147.593 45.3202C147.593 46.0302 147.365 46.6219 146.907 47.0892C146.446 47.5565 145.866 47.7901 145.172 47.7901C144.477 47.7901 143.897 47.5565 143.439 47.0892C142.981 46.6219 142.75 46.0332 142.75 45.3202C142.75 44.6071 142.981 44.0185 143.442 43.5451ZM143.554 45.3202C143.554 45.7966 143.709 46.2001 144.022 46.5309C144.331 46.8616 144.716 47.0255 145.172 47.0255C145.627 47.0255 146.006 46.8616 146.319 46.5309C146.631 46.2001 146.789 45.7996 146.789 45.3202C146.789 44.8408 146.631 44.4372 146.319 44.1065C146.006 43.7757 145.624 43.6088 145.172 43.6088C144.72 43.6088 144.331 43.7727 144.022 44.1034C143.712 44.4342 143.554 44.8377 143.554 45.3202Z" fill="#3D405B"/>
<path d="M23.3459 20.4024V20.6208H21.5375C20.4239 20.639 19.4165 21.1033 18.6822 21.8467C17.9479 22.5901 17.4897 23.6096 17.4715 24.7415V26.5742H17.256V24.7415C17.2378 23.6127 16.7796 22.5901 16.0453 21.8467C15.311 21.1033 14.3067 20.639 13.19 20.6208H11.3816V20.4024H13.19C14.3036 20.3842 15.311 19.9199 16.0453 19.1765C16.7796 18.4331 17.2378 17.4136 17.256 16.2818V14.449H17.4715V16.2818C17.5079 18.5423 19.3072 20.366 21.5344 20.4024H23.3429H23.3459Z" fill="#3D405B"/>
</svg>
