<svg width="182" height="44" viewBox="0 0 182 44" fill="none" xmlns="http://www.w3.org/2000/svg">
<path d="M4.38536 6.59552C7.27776 3.6754 10.9297 2.21347 15.345 2.21347C19.7603 2.21347 23.4198 3.68287 26.3271 6.61795C29.2345 9.55303 30.6901 13.2396 30.6901 17.6815C30.6901 22.1234 29.242 25.8025 26.3496 28.7226C23.4273 31.6428 19.7603 33.1047 15.345 33.1047C10.9297 33.1047 7.27027 31.6465 4.36291 28.7226C1.45555 25.7988 0 22.1197 0 17.6815C0 13.2434 1.45929 9.54555 4.38536 6.59552ZM5.10004 17.6815C5.10004 20.6615 6.08413 23.1778 8.05231 25.2342C10.0205 27.2906 12.4526 28.3188 15.345 28.3188C18.2374 28.3188 20.6322 27.2906 22.6153 25.2342C24.5984 23.1778 25.59 20.6615 25.59 17.6815C25.59 14.7016 24.5984 12.1778 22.6153 10.1064C20.6322 8.03502 18.2075 6.99933 15.345 6.99933C12.4826 6.99933 10.0205 8.02754 8.05231 10.084C6.08413 12.1404 5.10004 14.6717 5.10004 17.6815Z" fill="white"/>
<path d="M51.0865 32.6112H30.6901V2.70701H35.9248V28.0048H51.0902V32.6074L51.0865 32.6112Z" fill="white"/>
<path d="M51.0865 2.70701H56.3661V15.7148H71.5316V2.70701H76.8561V32.6112H71.5316V20.5418H56.3661V32.6112H51.0865V2.70701Z" fill="white"/>
<path d="M88.4818 2.70701H94.4312L105.84 32.6112H100.25L97.9223 25.9072H84.8598L82.4426 32.6112H76.8524L88.4818 2.70701ZM86.334 21.4803H96.4892L91.479 7.39939L86.334 21.4803Z" fill="white"/>
<path d="M119.838 2.70701C122.82 2.70701 125.278 3.64548 127.22 5.52244C129.159 7.39939 130.128 9.78485 130.128 12.6751C130.128 15.0605 129.495 17.0945 128.227 18.777C126.959 20.4596 125.252 21.5999 123.104 22.1982L130.397 32.6149H124.178L117.694 22.8712H111.03V32.6149H105.84V2.70701H119.842H119.838ZM111.026 18.5303H118.584C120.463 18.5303 121.978 18.0255 123.123 17.0122C124.272 15.999 124.844 14.6417 124.844 12.9443C124.844 11.2468 124.287 9.89701 123.168 8.80898C122.049 7.72094 120.609 7.1788 118.85 7.1788H111.022V18.534L111.026 18.5303Z" fill="white"/>
<path d="M51.5392 37.7186C51.9434 37.3073 52.4522 37.1016 53.0659 37.1016C53.5112 37.1016 53.9078 37.2138 54.2558 37.4381C54.6038 37.6625 54.8545 37.9653 55.0079 38.3467L54.3718 38.6645C54.2633 38.3953 54.0911 38.1785 53.8554 38.0139C53.6197 37.8494 53.354 37.7672 53.0547 37.7672C52.658 37.7672 52.325 37.9093 52.0519 38.1972C51.7787 38.4851 51.6403 38.8365 51.6403 39.2553C51.6403 39.674 51.7787 40.0218 52.0519 40.3097C52.325 40.5976 52.6618 40.7396 53.0621 40.7396C53.354 40.7396 53.6159 40.6611 53.8517 40.5003C54.0874 40.3396 54.2595 40.1264 54.3718 39.861L55.0266 40.1489C54.8732 40.5303 54.6187 40.8369 54.267 41.0649C53.9153 41.293 53.5149 41.4089 53.0659 41.4089C52.456 41.4089 51.9434 41.2033 51.5392 40.7957C51.1351 40.3882 50.9293 39.8759 50.9293 39.259C50.9293 38.6421 51.1314 38.1298 51.5392 37.7186Z" fill="white"/>
<path d="M55.6552 41.3416V37.1727H58.6187V37.8008H56.3661V38.93H58.5439V39.5469H56.3661V40.7135H58.686V41.3416H55.6552Z" fill="white"/>
<path d="M60.1491 37.1689L62.3941 40.2237V37.1689H63.0864V41.3379H62.4129L60.1528 38.3093V41.3379H59.4606V37.1689H60.1491Z" fill="white"/>
<path d="M63.7038 37.1689H67.0901V37.7971H65.7692V41.3379H65.0321V37.7971H63.7038V37.1689Z" fill="white"/>
<path d="M69.6607 37.1689C70.076 37.1689 70.4203 37.2998 70.6897 37.5615C70.9591 37.8233 71.0938 38.156 71.0938 38.5598C71.0938 38.8926 71.004 39.1768 70.8281 39.4123C70.6522 39.6479 70.4128 39.8049 70.1134 39.8909L71.1312 41.3416H70.2631L69.3576 39.9844H68.4296V41.3416H67.7075V37.1727H69.6607V37.1689ZM68.4334 39.3787H69.4886C69.7505 39.3787 69.96 39.3076 70.1209 39.1655C70.2818 39.0235 70.3604 38.8365 70.3604 38.5972C70.3604 38.3579 70.2818 38.171 70.1247 38.0214C69.9675 37.8681 69.7692 37.7933 69.5222 37.7933H68.4296V39.3749L68.4334 39.3787Z" fill="white"/>
<path d="M72.2126 37.7111C72.6167 37.3035 73.1256 37.1016 73.7392 37.1016C74.3529 37.1016 74.8655 37.3073 75.2696 37.7148C75.6737 38.1224 75.8795 38.6383 75.8795 39.259C75.8795 39.8797 75.6775 40.3919 75.2733 40.7995C74.8655 41.207 74.3529 41.4089 73.7392 41.4089C73.1256 41.4089 72.6129 41.207 72.2088 40.7995C71.8047 40.3919 71.5989 39.8797 71.5989 39.259C71.5989 38.6383 71.801 38.1261 72.2088 37.7111H72.2126ZM72.3136 39.259C72.3136 39.674 72.452 40.0255 72.7252 40.3134C72.9983 40.6013 73.3388 40.7434 73.743 40.7434C74.1471 40.7434 74.4801 40.6013 74.757 40.3134C75.0339 40.0255 75.1723 39.674 75.1723 39.259C75.1723 38.844 75.0339 38.4925 74.757 38.2009C74.4801 37.913 74.1433 37.7672 73.743 37.7672C73.3426 37.7672 73.0021 37.9093 72.7252 38.1972C72.4483 38.4851 72.3136 38.8365 72.3136 39.2553V39.259Z" fill="white"/>
<path d="M78.3566 37.7111C78.7607 37.3035 79.2696 37.1016 79.8832 37.1016C80.4969 37.1016 81.0095 37.3073 81.4136 37.7148C81.8177 38.1224 82.0235 38.6383 82.0235 39.259C82.0235 39.8797 81.8215 40.3919 81.4173 40.7995C81.0095 41.207 80.4969 41.4089 79.8832 41.4089C79.2696 41.4089 78.7569 41.207 78.3528 40.7995C77.9487 40.3919 77.7429 39.8797 77.7429 39.259C77.7429 38.6383 77.945 38.1261 78.3528 37.7111H78.3566ZM78.4576 39.259C78.4576 39.674 78.596 40.0255 78.8692 40.3134C79.1423 40.6013 79.4828 40.7434 79.887 40.7434C80.2911 40.7434 80.6241 40.6013 80.901 40.3134C81.1779 40.0255 81.3163 39.674 81.3163 39.259C81.3163 38.844 81.1779 38.4925 80.901 38.2009C80.6241 37.913 80.2873 37.7672 79.887 37.7672C79.4866 37.7672 79.1461 37.9093 78.8692 38.1972C78.5923 38.4851 78.4576 38.8365 78.4576 39.2553V39.259Z" fill="white"/>
<path d="M82.7681 37.1689H85.6493V37.8046H83.4903V38.9749H85.4809V39.5993H83.4903V41.3379H82.7681V37.1689Z" fill="white"/>
<path d="M85.9748 37.1689H89.3611V37.7971H88.0403V41.3379H87.3032V37.7971H85.9748V37.1689Z" fill="white"/>
<path d="M90.6708 37.1689H91.5014L93.0917 41.3379H92.3134L91.9879 40.4031H90.1656L89.8289 41.3379H89.0506L90.6708 37.1689ZM91.7858 39.7899L91.0861 37.827L90.3677 39.7899H91.7858Z" fill="white"/>
<path d="M96.5042 41.3416H93.6604V37.1727H94.3901V40.7023H96.5042V41.3454V41.3416Z" fill="white"/>
<path d="M97.8213 37.1689L99.4003 39.689L100.979 37.1689H101.683V41.3379H100.972V38.4028L99.651 40.4891H99.1571L97.8288 38.4065V41.3379H97.1253V37.1689H97.825H97.8213Z" fill="white"/>
<path d="M103.022 37.7111C103.426 37.3035 103.935 37.1016 104.549 37.1016C105.163 37.1016 105.675 37.3073 106.079 37.7148C106.484 38.1224 106.689 38.6383 106.689 39.259C106.689 39.8797 106.487 40.3919 106.083 40.7995C105.675 41.207 105.163 41.4089 104.549 41.4089C103.935 41.4089 103.423 41.207 103.019 40.7995C102.615 40.3919 102.409 39.8797 102.409 39.259C102.409 38.6383 102.611 38.1261 103.019 37.7111H103.022ZM103.123 39.259C103.123 39.674 103.262 40.0255 103.535 40.3134C103.808 40.6013 104.149 40.7434 104.553 40.7434C104.957 40.7434 105.29 40.6013 105.567 40.3134C105.844 40.0255 105.982 39.674 105.982 39.259C105.982 38.844 105.844 38.4925 105.567 38.2009C105.29 37.913 104.953 37.7672 104.553 37.7672C104.152 37.7672 103.812 37.9093 103.535 38.1972C103.258 38.4851 103.123 38.8365 103.123 39.2553V39.259Z" fill="white"/>
<path d="M110.278 41.3416H107.434V37.1727H108.164V40.7023H110.278V41.3454V41.3416Z" fill="white"/>
<path d="M110.446 39.259C110.446 38.6383 110.648 38.1261 111.056 37.7148C111.46 37.3073 111.973 37.1016 112.586 37.1016C113.2 37.1016 113.713 37.3073 114.117 37.7148C114.521 38.1224 114.727 38.6383 114.727 39.259C114.727 39.8797 114.525 40.3919 114.12 40.7995C113.713 41.207 113.2 41.4089 112.586 41.4089C111.973 41.4089 111.46 41.207 111.056 40.7995C110.652 40.3919 110.446 39.8797 110.446 39.259ZM111.157 39.259C111.157 39.674 111.295 40.0255 111.569 40.3134C111.842 40.6013 112.182 40.7434 112.586 40.7434C112.99 40.7434 113.323 40.6013 113.6 40.3134C113.877 40.0255 114.016 39.674 114.016 39.259C114.016 38.844 113.877 38.4925 113.6 38.2009C113.323 37.913 112.987 37.7672 112.586 37.7672C112.186 37.7672 111.845 37.9093 111.569 38.1972C111.292 38.4851 111.157 38.8365 111.157 39.2553V39.259ZM112.231 36.8399L112.56 35.8304H113.413L112.972 36.8399H112.231Z" fill="white"/>
<path d="M115.224 39.2515C115.224 38.6234 115.426 38.1074 115.834 37.7036C116.242 37.2998 116.762 37.0942 117.395 37.0942C117.78 37.0942 118.135 37.1764 118.453 37.3447C118.772 37.5092 119.026 37.7447 119.217 38.0476L118.656 38.4963C118.536 38.2682 118.36 38.0887 118.135 37.9616C117.907 37.8345 117.668 37.7672 117.41 37.7672C116.975 37.7672 116.627 37.9093 116.358 38.1897C116.089 38.4738 115.954 38.8253 115.954 39.2478C115.954 39.6703 116.092 40.0367 116.366 40.3209C116.639 40.605 116.987 40.7434 117.406 40.7434C117.784 40.7434 118.094 40.6312 118.337 40.4069C118.581 40.1825 118.704 39.9059 118.704 39.5731H117.301V38.9861H119.464V39.3413C119.464 39.947 119.269 40.4443 118.88 40.8294C118.491 41.2145 117.997 41.4089 117.391 41.4089C116.785 41.4089 116.238 41.207 115.83 40.8032C115.423 40.3994 115.221 39.8797 115.221 39.2441L115.224 39.2515Z" fill="white"/>
<path d="M120.178 41.3416V37.1727H120.908V41.3416H120.178Z" fill="white"/>
<path d="M122.248 37.7186C122.652 37.3073 123.161 37.1016 123.774 37.1016C124.22 37.1016 124.616 37.2138 124.964 37.4381C125.312 37.6625 125.563 37.9653 125.716 38.3467L125.08 38.6645C124.972 38.3953 124.8 38.1785 124.564 38.0139C124.328 37.8494 124.062 37.7672 123.763 37.7672C123.366 37.7672 123.033 37.9093 122.76 38.1972C122.487 38.4851 122.349 38.8365 122.349 39.2553C122.349 39.674 122.487 40.0218 122.76 40.3097C123.033 40.5976 123.37 40.7396 123.771 40.7396C124.062 40.7396 124.324 40.6611 124.56 40.5003C124.796 40.3396 124.968 40.1264 125.08 39.861L125.735 40.1489C125.582 40.5303 125.327 40.8369 124.975 41.0649C124.624 41.293 124.223 41.4089 123.774 41.4089C123.164 41.4089 122.652 41.2033 122.248 40.7957C121.844 40.3882 121.638 39.8759 121.638 39.259C121.638 38.6421 121.84 38.1298 122.248 37.7186Z" fill="white"/>
<path d="M126.727 37.7111C127.131 37.3035 127.64 37.1016 128.253 37.1016C128.867 37.1016 129.379 37.3073 129.784 37.7148C130.188 38.1224 130.393 38.6383 130.393 39.259C130.393 39.8797 130.191 40.3919 129.787 40.7995C129.379 41.207 128.867 41.4089 128.253 41.4089C127.64 41.4089 127.127 41.207 126.723 40.7995C126.319 40.3919 126.113 39.8797 126.113 39.259C126.113 38.6383 126.315 38.1261 126.723 37.7111H126.727ZM126.828 39.259C126.828 39.674 126.966 40.0255 127.239 40.3134C127.512 40.6013 127.853 40.7434 128.257 40.7434C128.661 40.7434 128.994 40.6013 129.271 40.3134C129.548 40.0255 129.686 39.674 129.686 39.259C129.686 38.844 129.548 38.4925 129.271 38.2009C128.994 37.913 128.657 37.7672 128.257 37.7672C127.857 37.7672 127.516 37.9093 127.239 38.1972C126.962 38.4851 126.828 38.8365 126.828 39.2553V39.259Z" fill="white"/>
<path d="M20.6247 17.5619V17.7526H19.0269C18.0429 17.7675 17.1523 18.1713 16.505 18.8219C15.8577 19.4687 15.4535 20.3586 15.4348 21.342V22.9385H15.244V21.342C15.229 20.3586 14.8249 19.4687 14.1739 18.8219C13.5265 18.1751 12.636 17.7712 11.6519 17.7526H10.0542V17.5619H11.6519C12.636 17.5469 13.5265 17.1431 14.1739 16.4925C14.8212 15.8457 15.2253 14.9558 15.244 13.9725V12.3759H15.4348V13.9725C15.4648 15.9392 17.055 17.5282 19.0232 17.5581H20.6209L20.6247 17.5619Z" fill="white"/>
<path d="M159.983 44V34.7199C167.003 34.7199 172.709 29.0143 172.709 22.0037C172.709 14.9932 166.999 9.28756 159.983 9.28756V0C162.954 0 165.836 0.583277 168.556 1.73114C171.179 2.83787 173.532 4.42692 175.553 6.44222C177.573 8.45751 179.16 10.8131 180.268 13.4341C181.416 16.1485 182 19.0313 182 22C182 24.9687 181.416 27.8477 180.268 30.5659C179.16 33.1869 177.57 35.5387 175.553 37.5578C173.536 39.5768 171.179 41.1621 168.556 42.2689C165.839 43.4167 162.954 44 159.983 44Z" fill="white"/>
<path d="M182 22C182 14.9857 167.003 9.28382 159.983 9.28382V0C162.954 0 165.836 0.583277 168.556 1.73114C171.179 2.83787 173.532 4.42692 175.553 6.44222C177.573 8.45751 179.16 10.8131 180.268 13.4341C181.416 16.1485 182 19.0313 182 22Z" fill="white"/>
<path d="M153.432 41.3005L139.823 25.6978C137.772 23.6601 137.772 20.3399 139.823 18.3022L153.432 2.69952L159.98 9.28008L149.271 22L159.98 34.7162L153.428 41.2967L153.432 41.3005Z" fill="white"/>
</svg>
