<svg width="50" height="51" viewBox="0 0 50 51" fill="none" xmlns="http://www.w3.org/2000/svg">
<path d="M33.6905 1.7807L31.2175 12.2855C29.3605 11.3934 27.2851 10.8928 25.0973 10.8897L25.0791 10.7926V0.230164C28.0467 0.230164 30.9353 0.749032 33.6875 1.7807H33.6905Z" fill="#0165A3"/>
<path d="M17.6662 3.32819L25.079 10.8897L20.9311 15.8872L14.6531 6.83283L17.6662 3.32819Z" fill="#0163B8"/>
<path d="M25.0973 10.8898H25.0791V10.7927L25.0973 10.8898Z" fill="#0163B8"/>
<path d="M42.2896 7.22128L35.8022 15.7538C34.5248 14.3064 32.9652 13.12 31.2144 12.2825L33.6873 1.77771C34.0515 1.91425 34.4186 2.0599 34.7797 2.21769C37.5713 3.41321 40.0928 5.09422 42.2866 7.21825L42.2896 7.22128Z" fill="#008BBA"/>
<path d="M20.9312 15.8873L17.6875 19.7985L8.36914 14.1426L14.6532 6.83289L20.9312 15.8873Z" fill="#6963AF"/>
<path d="M47.8245 15.156L38.5273 20.2537C37.8932 18.5848 36.9646 17.0616 35.8025 15.7508L42.2899 7.21826C42.4264 7.35177 42.566 7.49135 42.7025 7.62789C44.8599 9.82171 46.5834 12.3493 47.8245 15.156Z" fill="#019AB0"/>
<path d="M17.6874 19.7985L13.9856 24.259L1.23535 22.6356C1.50237 22.135 1.84222 21.6677 2.26095 21.2459L8.36904 14.1395L17.6874 19.7955V19.7985Z" fill="#AB4A9A"/>
<path d="M49.9667 24.2195L39.4801 25.0904C39.4346 23.3912 39.1008 21.7648 38.5273 20.2537L47.8245 15.156C47.8973 15.3229 47.9701 15.4898 48.0399 15.6597C49.1778 18.3876 49.8241 21.2611 49.9667 24.2195Z" fill="#00AC99"/>
<path d="M16.3221 29.5508L5.01627 32.9523L2.26111 29.748C0.355552 27.8273 0.0126725 24.9174 1.2355 22.6417L13.9857 24.265L12.9601 25.503L16.3221 29.5538V29.5508Z" fill="#D04F89"/>
<path d="M49.9999 25.497C49.9999 28.1793 49.5933 30.801 48.7832 33.3134L38.8367 29.8361C39.2584 28.4645 39.486 27.005 39.486 25.4939C39.486 25.3604 39.486 25.2209 39.4799 25.0873L49.9666 24.2165C49.9878 24.6413 49.9999 25.0661 49.9999 25.4939V25.497Z" fill="#02B47C"/>
<path d="M19.4807 33.3589L11.373 40.3439L5.01611 32.9493L16.322 29.5508L19.4807 33.3589Z" fill="#EF527C"/>
<path d="M48.7834 33.3164C48.568 33.9961 48.3191 34.6727 48.04 35.3373C47.1115 37.5675 45.8826 39.6248 44.3806 41.4848L36.6431 34.2055C37.6019 32.9007 38.3514 31.4291 38.8399 29.8421L48.7864 33.3194L48.7834 33.3164Z" fill="#00BB6F"/>
<path d="M22.6941 37.2307L17.8665 47.4594L17.6662 47.6657L11.373 40.3439L19.4808 33.3589L22.6941 37.2307Z" fill="#FF6B5D"/>
<path d="M44.3806 41.4848C43.8587 42.1402 43.2974 42.7653 42.7026 43.3661C41.0095 45.0805 39.113 46.5248 37.0406 47.6718L32.8896 37.7708C34.3401 36.818 35.6145 35.6073 36.6431 34.2054L44.3806 41.4848Z" fill="#7DC052"/>
<path d="M22.6943 37.2307L25.0793 40.1072L17.8667 47.4594L22.6943 37.2307Z" fill="#E3AC41"/>
<path d="M27.6674 39.8705L27.4307 50.6576C26.6539 50.7304 25.868 50.7698 25.0791 50.7698V40.1072C25.9621 40.1072 26.8269 40.0253 27.6674 39.8705Z" fill="#E3AC41"/>
<path d="M37.0406 47.6717C36.3093 48.0783 35.5598 48.4455 34.7831 48.7793C32.4284 49.7867 29.9646 50.4178 27.4309 50.6575L27.6676 39.8705C29.564 39.5216 31.33 38.7933 32.8896 37.7708L37.0406 47.6717Z" fill="#C5BA4A"/>
</svg>
