<svg width="36" height="36" viewBox="0 0 36 36" fill="white" xmlns="http://www.w3.org/2000/svg">
    <g clip-path="url(#clip0_76711_206)">
        <path d="M27.5411 36.0656H14.4263C13.8219 36.0766 13.2214 35.966 12.6606 35.7403C12.0998 35.5145 11.5901 35.1783 11.1618 34.7516C10.7336 34.3249 10.3955 33.8164 10.1678 33.2564C9.94006 32.6964 9.82729 32.0963 9.83618 31.4918V23.9672C9.83618 23.6411 9.96572 23.3284 10.1963 23.0978C10.4269 22.8672 10.7396 22.7377 11.0657 22.7377C11.3918 22.7377 11.7045 22.8672 11.9351 23.0978C12.1657 23.3284 12.2952 23.6411 12.2952 23.9672V31.4918C12.2952 32.0353 12.5111 32.5565 12.8954 32.9408C13.2797 33.3251 13.8009 33.541 14.3444 33.541H27.5411C28.0846 33.541 28.6058 33.3251 28.9901 32.9408C29.3744 32.5565 29.5903 32.0353 29.5903 31.4918V23.9672C29.5903 23.6411 29.7198 23.3284 29.9504 23.0978C30.181 22.8672 30.4937 22.7377 30.8198 22.7377C31.1459 22.7377 31.4586 22.8672 31.6892 23.0978C31.9198 23.3284 32.0493 23.6411 32.0493 23.9672V31.4918C32.058 32.0893 31.9478 32.6826 31.7251 33.2372C31.5025 33.7917 31.1718 34.2965 30.7523 34.7221C30.3328 35.1476 29.8329 35.4856 29.2816 35.7162C28.7303 35.9469 28.1387 36.0656 27.5411 36.0656Z" />
        <path d="M30.8197 25.1967C29.9281 25.1967 29.0565 24.9323 28.3151 24.437C27.5737 23.9416 26.9959 23.2375 26.6547 22.4137C26.3135 21.59 26.2242 20.6835 26.3981 19.809C26.5721 18.9345 27.0015 18.1312 27.6319 17.5008C28.2624 16.8703 29.0657 16.4409 29.9402 16.267C30.8147 16.093 31.7212 16.1823 32.5449 16.5235C33.3687 16.8647 34.0728 17.4425 34.5682 18.1839C35.0635 18.9253 35.3279 19.7969 35.3279 20.6885C35.3279 21.8842 34.8529 23.0309 34.0075 23.8763C33.162 24.7218 32.0154 25.1967 30.8197 25.1967ZM30.8197 18.6393C30.4144 18.6393 30.0182 18.7595 29.6813 18.9847C29.3443 19.2099 29.0816 19.5299 28.9265 19.9043C28.7714 20.2788 28.7308 20.6908 28.8099 21.0883C28.889 21.4858 29.0842 21.8509 29.3707 22.1375C29.6573 22.4241 30.0224 22.6193 30.4199 22.6983C30.8174 22.7774 31.2295 22.7368 31.6039 22.5817C31.9783 22.4266 32.2984 22.164 32.5236 21.827C32.7487 21.49 32.8689 21.0938 32.8689 20.6885C32.8689 20.4194 32.8159 20.153 32.7129 19.9043C32.6099 19.6557 32.459 19.4298 32.2687 19.2395C32.0784 19.0493 31.8525 18.8983 31.6039 18.7953C31.3553 18.6924 31.0888 18.6393 30.8197 18.6393Z" />
        <path d="M15.623 5.04918C17.0173 5.04918 18.1476 3.91888 18.1476 2.52459C18.1476 1.1303 17.0173 0 15.623 0C14.2287 0 13.0984 1.1303 13.0984 2.52459C13.0984 3.91888 14.2287 5.04918 15.623 5.04918Z" />
        <path d="M11.0656 25.1967C8.13213 25.1924 5.32008 24.0252 3.24582 21.9509C1.17156 19.8766 0.00433621 17.0646 0 14.1311L0 4.14754C0.00430344 3.388 0.307939 2.66079 0.845023 2.12371C1.38211 1.58663 2.10931 1.28299 2.86885 1.27869H6.55738C6.71884 1.27869 6.87872 1.31049 7.02789 1.37228C7.17706 1.43407 7.3126 1.52463 7.42677 1.6388C7.54094 1.75297 7.63151 1.88851 7.6933 2.03768C7.75508 2.18685 7.78689 2.34673 7.78689 2.50819C7.78689 2.66966 7.75508 2.82954 7.6933 2.97871C7.63151 3.12788 7.54094 3.26342 7.42677 3.37759C7.3126 3.49176 7.17706 3.58232 7.02789 3.64411C6.87872 3.7059 6.71884 3.7377 6.55738 3.7377H2.86885C2.76016 3.7377 2.65591 3.78088 2.57906 3.85774C2.5022 3.9346 2.45902 4.03884 2.45902 4.14754V14.1311C2.45902 16.4137 3.36578 18.6029 4.97982 20.2169C6.59386 21.8309 8.78297 22.7377 11.0656 22.7377C13.3482 22.7377 15.5373 21.8309 17.1513 20.2169C18.7654 18.6029 19.6721 16.4137 19.6721 14.1311V4.14754C19.6721 4.03884 19.629 3.9346 19.5521 3.85774C19.4752 3.78088 19.371 3.7377 19.2623 3.7377H15.6393C15.3133 3.7377 15.0005 3.60817 14.77 3.37759C14.5394 3.14701 14.4098 2.83428 14.4098 2.50819C14.4098 2.18211 14.5394 1.86938 14.77 1.6388C15.0005 1.40822 15.3133 1.27869 15.6393 1.27869H19.2459C20.0068 1.27869 20.7365 1.58094 21.2745 2.11895C21.8125 2.65697 22.1148 3.38667 22.1148 4.14754V14.1311C22.1148 17.0631 20.9512 19.8752 18.8795 21.9499C16.8079 24.0246 13.9975 25.1924 11.0656 25.1967Z" />
        <path d="M6.49188 5.04918C7.88617 5.04918 9.01647 3.91888 9.01647 2.52459C9.01647 1.1303 7.88617 0 6.49188 0C5.09758 0 3.96729 1.1303 3.96729 2.52459C3.96729 3.91888 5.09758 5.04918 6.49188 5.04918Z" />
    </g>
    <defs>
        <clipPath id="clip0_76711_206">
        <rect width="35.3279" height="36" />
        </clipPath>
    </defs>
</svg>
